
<svg xmlns="http://www.w3.org/2000/svg" width="115" height="33" viewBox="0 0 2115 479">
  <path d="M0 0 C0.9597876 0.33837891 0.9597876 0.33837891 1.93896484 0.68359375 C39.93705169 14.39194814 69.64289774 43.11866575 86.87744141 79.46435547 C103.49684727 117.00440533 102.98358097 159.24744591 88.40625 197.25390625 C74.26882638 232.25502172 45.05466979 261.72321432 10.40942383 276.49926758 C-22.45119813 289.85636111 -57.80728617 292.05180515 -92 282.375 C-93.0828125 282.07698486 -93.0828125 282.07698486 -94.1875 281.77294922 C-103.66340598 278.87958991 -111.89264287 274.31401127 -121 270 C-121.33 312.24 -121.66 354.48 -122 398 C-146.75 398 -171.5 398 -197 398 C-197.06627401 364.08844106 -197.12161328 330.17694554 -197.15319599 296.26534121 C-197.15694761 292.25168244 -197.16083063 288.2380238 -197.16479492 284.22436523 C-197.16558185 283.42539838 -197.16636878 282.62643153 -197.16717956 281.80325355 C-197.18019407 268.90699884 -197.20382584 256.0107847 -197.23145839 243.11455397 C-197.25962316 229.85827962 -197.27619952 216.60202636 -197.28226548 203.34572333 C-197.28635911 195.18162293 -197.29923537 187.01763725 -197.3237494 178.85357221 C-197.33974369 173.23698741 -197.34436982 167.62046095 -197.34050413 162.00385509 C-197.33860358 158.77491537 -197.34298341 155.54621336 -197.35761642 152.3173008 C-197.53265338 111.66440125 -188.47550291 74.0991502 -161 43 C-160.36408936 42.26571777 -160.36408936 42.26571777 -159.71533203 41.51660156 C-134.97186957 13.00330941 -98.729885 -4.72826745 -61.14697266 -7.85498047 C-40.34411037 -9.26013173 -19.69024698 -6.95123154 0 0 Z M-98 86 C-98.68449219 86.59167969 -99.36898438 87.18335938 -100.07421875 87.79296875 C-110.16590653 97.09159658 -116.24610599 108.97177961 -120 122 C-120.24492188 122.83789062 -120.48984375 123.67578125 -120.7421875 124.5390625 C-125.06176918 142.23159569 -121.11428789 161.19776066 -112.40234375 176.875 C-101.65731575 194.49782497 -85.70510353 206.45428236 -65.8125 211.9375 C-45.37629305 215.95444486 -25.31022392 212.425571 -7.91015625 200.96484375 C7.84678817 189.69852914 20.31025129 172.59536755 23.6796875 153.14453125 C25.92796735 131.07300345 21.46439319 110.94272824 7.8125 93.125 C-5.74301276 77.66614469 -24.56581056 68.21634714 -45.0390625 66.62109375 C-65.00913116 66.01056897 -83.1121214 72.57222859 -98 86 Z " fill="#00CF6A" transform="translate(1353,81)"/>
  <path d="M0 0 C33.58922665 -0.08822304 67.17834064 -0.16206379 100.76764833 -0.20426132 C104.73539857 -0.209264 108.70314856 -0.2144413 112.67089844 -0.21972656 C113.46078825 -0.2207758 114.25067806 -0.22182505 115.06450392 -0.22290608 C127.84534264 -0.24029957 140.62610921 -0.27183142 153.40690516 -0.30861118 C166.52639292 -0.34605004 179.64584295 -0.36824207 192.76538193 -0.37635398 C200.85738592 -0.38183566 208.94918596 -0.39913349 217.04112716 -0.43166587 C223.25163689 -0.45535861 229.46199192 -0.45781241 235.67254066 -0.45243073 C238.21619356 -0.45353005 240.75985426 -0.46147174 243.30346107 -0.4768219 C246.78159919 -0.49678004 250.25887105 -0.49191699 253.73703003 -0.48101807 C254.73900291 -0.49266943 255.7409758 -0.5043208 256.7733115 -0.51632524 C268.06577976 -0.42095469 276.46395211 3.98930821 284.65234375 11.51953125 C291.76785734 18.96094622 294.44027713 27.91349452 294.625 38 C294.64804199 38.71067627 294.67108398 39.42135254 294.69482422 40.15356445 C294.53414798 51.43023126 288.40323113 60.57602776 281.5625 69.0625 C280.12488156 70.89602251 278.68871107 72.73068113 277.25390625 74.56640625 C276.53734863 75.47664551 275.82079102 76.38688477 275.08251953 77.32470703 C271.97077291 81.3221888 268.9833618 85.40632974 266 89.5 C260.41540359 97.12885073 254.70719991 104.6564936 248.9609375 112.1640625 C244.57935674 117.89902727 240.26457042 123.67759563 236 129.5 C230.4133758 137.12740017 224.70723662 144.65644565 218.9609375 152.1640625 C214.57935674 157.89902727 210.26457042 163.67759563 206 169.5 C200.4133758 177.12740017 194.70723662 184.65644565 188.9609375 192.1640625 C184.57935674 197.89902727 180.26457042 203.67759563 176 209.5 C170.4133758 217.12740017 164.70723662 224.65644565 158.9609375 232.1640625 C153.99603718 238.66252276 149.12871927 245.22650694 144.29785156 251.82495117 C139.24339892 258.71132 134.07148289 265.50484487 128.85546875 272.26953125 C123.38198329 279.39991732 118.23675695 286.66854027 113 294 C173.06 294 233.12 294 295 294 C295 318.75 295 343.5 295 369 C261.55518915 369.08823682 228.11049156 369.16207226 194.66559927 369.20426132 C190.71415907 369.20926395 186.76271912 369.21444125 182.8112793 369.21972656 C181.63132397 369.22130043 181.63132397 369.22130043 180.42753116 369.22290608 C167.70233329 369.24029561 154.97720794 369.27182526 142.25205304 369.30861118 C129.18793109 369.34606109 116.12384703 369.3682444 103.05967361 369.37635398 C95.00298793 369.38183337 86.94650729 369.39911872 78.88988475 369.43166587 C72.70460636 369.45537529 66.5194832 369.45780963 60.33416557 369.45243073 C57.80222056 369.45352926 55.27026764 369.46146038 52.73836899 369.4768219 C49.27371739 369.49680782 45.80993351 369.49190697 42.34526062 369.48101807 C41.35009153 369.49266943 40.35492243 369.5043208 39.3295967 369.51632524 C27.83189692 369.4190675 18.47044918 365.38037332 10.31640625 357.33984375 C3.22035636 349.57135023 -0.62087988 339.82213666 -0.2421875 329.21875 C1.31385855 314.96336039 8.98835427 305.02147375 17.5625 294 C18.98173791 292.15722677 20.39968201 290.31345645 21.81640625 288.46875 C22.52039551 287.55222656 23.22438477 286.63570313 23.94970703 285.69140625 C27.01729752 281.66460016 30.01176546 277.58585676 33 273.5 C38.58602744 265.87217221 44.29277397 258.34354053 50.0390625 250.8359375 C54.42064326 245.10097273 58.73542958 239.32240437 63 233.5 C68.5866242 225.87259983 74.29276338 218.34355435 80.0390625 210.8359375 C84.42064326 205.10097273 88.73542958 199.32240437 93 193.5 C98.5866242 185.87259983 104.29276338 178.34355435 110.0390625 170.8359375 C114.42064326 165.10097273 118.73542958 159.32240437 123 153.5 C128.5866242 145.87259983 134.29276338 138.34355435 140.0390625 130.8359375 C144.42064378 125.10097205 148.7354066 119.32238845 153 113.5 C159.89866953 104.08196341 166.96844235 94.79833404 174.07226562 85.53442383 C176.73281995 82.03654965 179.36316055 78.51578594 182 75 C91.91 74.505 91.91 74.505 0 74 C0 49.58 0 25.16 0 0 Z " fill="#0033C9" transform="translate(0,0)"/>
  <path d="M0 0 C24.75 0 49.5 0 75 0 C75 72.93 75 145.86 75 221 C86.88 221 98.76 221 111 221 C111 245.75 111 270.5 111 296 C49.77265409 296 49.77265409 296 25.78125 272.79296875 C15 261.96629213 15 261.96629213 15 259 C14.56171875 259.32871094 14.1234375 259.65742188 13.671875 259.99609375 C12.28833107 261.03375169 10.90265291 262.06856619 9.515625 263.1015625 C7.78182965 264.4099857 6.06383139 265.73951781 4.359375 267.0859375 C-25.75499198 290.53564949 -62.7099437 299.98774749 -100.54052734 295.28149414 C-129.29682943 290.92756875 -155.34437977 277.19977206 -176 257 C-176.92425781 256.13761719 -177.84851563 255.27523437 -178.80078125 254.38671875 C-204.7975008 229.56665412 -220.37076533 192.46493869 -221.203125 156.578125 C-221.62695649 117.28250825 -212.35634394 80.21217944 -186 50 C-185.18015625 49.04738281 -184.3603125 48.09476563 -183.515625 47.11328125 C-161.53711008 22.05842019 -130.30759656 4.79778451 -97 1 C-91.66346369 0.68581855 -86.34335346 0.61055272 -81 0.625 C-80.27588928 0.62521149 -79.55177856 0.62542297 -78.8057251 0.62564087 C-66.82829439 0.66045419 -55.54663341 1.68735199 -44 5 C-43.33452148 5.18191895 -42.66904297 5.36383789 -41.98339844 5.55126953 C-26.7371207 9.80153978 -13.25723704 17.56357643 0 26 C0 17.42 0 8.84 0 0 Z M-122.6640625 94.640625 C-123.43492187 95.41921875 -124.20578125 96.1978125 -125 97 C-125.77085937 97.73734375 -126.54171875 98.4746875 -127.3359375 99.234375 C-140.19477166 112.31264319 -146.29122598 130.40625192 -146.5 148.5 C-146.29920318 167.33777896 -139.60925521 183.97283657 -127 198 C-126.48179687 198.61101562 -125.96359375 199.22203125 -125.4296875 199.8515625 C-116.93494152 209.20005179 -104.89311725 215.29991908 -93 219 C-92.23042969 219.24492187 -91.46085937 219.48984375 -90.66796875 219.7421875 C-71.30707354 224.69260904 -50.79568886 220.10410424 -33.86621094 210.20654297 C-28.62786619 206.81984755 -24.30724968 202.47265865 -20 198 C-19.00419922 197.03320312 -19.00419922 197.03320312 -17.98828125 196.046875 C-4.93828019 182.55698626 0.12698969 163.2865157 0 145 C-1.013424 125.33526201 -9.89214653 107.58701778 -24 94 C-52.32184558 69.83669434 -95.03644457 67.99651451 -122.6640625 94.640625 Z " fill="#0033C9" transform="translate(543,73)"/>
  <path d="M0 0 C24.75 0 49.5 0 75 0 C75 72.93 75 145.86 75 221 C87.21 221 99.42 221 112 221 C112 245.75 112 270.5 112 296 C64.93055159 296 64.93055159 296 51.75 289.75 C51.08653564 289.44553955 50.42307129 289.1410791 49.73950195 288.82739258 C35.04775929 281.91812975 23.66642123 272.01781655 14 259 C13.42636719 259.58265625 12.85273437 260.1653125 12.26171875 260.765625 C-0.34444342 272.93181489 -15.60185526 281.93227339 -32 288 C-32.63969727 288.23799316 -33.27939453 288.47598633 -33.93847656 288.72119141 C-68.4023824 301.21024618 -106.05746947 298.19364075 -139.046875 282.9453125 C-150.05995903 277.64533376 -159.82301004 271.08081046 -169 263 C-169.85207031 262.26910156 -170.70414063 261.53820312 -171.58203125 260.78515625 C-193.294489 241.80760101 -208.34808347 216.07395593 -215.8125 188.3125 C-216.0074707 187.58957764 -216.20244141 186.86665527 -216.40332031 186.12182617 C-219.53264855 173.71075585 -220.41209209 161.24588035 -220.375 148.5 C-220.37412384 147.75843658 -220.37324768 147.01687317 -220.37234497 146.25283813 C-220.32290537 133.49964409 -219.32451482 121.36604212 -216 109 C-215.76925781 108.13697266 -215.53851562 107.27394531 -215.30078125 106.38476562 C-208.28167906 81.18656015 -195.02914383 59.70208233 -177 41 C-176.40832031 40.35675781 -175.81664062 39.71351562 -175.20703125 39.05078125 C-154.64402999 17.26923177 -122.36228054 2.33068672 -92.4934082 0.82299805 C-58.97896976 0.26682456 -58.97896976 0.26682456 -43 5 C-42.26974609 5.21430664 -41.53949219 5.42861328 -40.78710938 5.64941406 C-26.35497579 10.03264827 -13.53878764 16.64080824 -1 25 C-0.67 16.75 -0.34 8.5 0 0 Z M-127 99 C-140.300602 114.76631075 -147.18955731 133.96187921 -145.74609375 154.63671875 C-143.42512668 173.6435572 -135.43972999 188.67816238 -122 202 C-121.04867188 203.00160156 -121.04867188 203.00160156 -120.078125 204.0234375 C-107.02196127 216.79074805 -87.48010543 221.65967687 -69.77441406 221.47094727 C-52.00891768 220.86185376 -36.17198678 213.84052241 -23 202 C-22.38898438 201.48179687 -21.77796875 200.96359375 -21.1484375 200.4296875 C-9.29127081 189.65536708 -1.11093885 172.40656165 0.20532227 156.5222168 C1.00399782 135.2888858 -3.32843088 116.06023615 -18 100 C-18.75023437 99.16984375 -19.50046875 98.3396875 -20.2734375 97.484375 C-34.42576736 82.57308739 -52.51299701 75.47574436 -72.92578125 74.88671875 C-93.55669826 75.08390792 -112.82936861 84.26348649 -127 99 Z " fill="#00CF6A" transform="translate(1699,73)"/>
  <path d="M0 0 C4.10428559 3.5542267 8.0941353 7.22884241 12 11 C12.56340088 11.54003662 13.12680176 12.08007324 13.70727539 12.63647461 C38.29260418 36.63667862 53.47123698 72.3582256 54.30078125 106.63671875 C54.32026581 109.32162531 54.32737453 112.00292548 54.3125 114.6875 C54.31034485 115.39032104 54.3081897 116.09314209 54.30596924 116.81726074 C54.25211669 127.78512537 53.7183555 138.33587166 51 149 C50.80664062 149.78165527 50.61328125 150.56331055 50.4140625 151.36865234 C45.59442545 170.30878465 37.50399987 187.23289741 26 203 C25.39027344 203.85335937 24.78054688 204.70671875 24.15234375 205.5859375 C0.44768607 236.94902304 -34.62824627 256.31946768 -73.17285156 262.33935547 C-110.33819503 267.10610391 -149.80775673 258.70197771 -180 236 C-180.83144531 235.37738281 -181.66289063 234.75476563 -182.51953125 234.11328125 C-216.02873348 208.09747543 -235.84082025 172.54210753 -241.46484375 130.52734375 C-241.73875344 127.67943344 -241.90685371 124.85918598 -242 122 C-242.03996094 121.02804688 -242.07992187 120.05609375 -242.12109375 119.0546875 C-242.96918071 79.24448769 -228.30881118 41.80397958 -201 13 C-200.10667969 12.04222656 -199.21335937 11.08445313 -198.29296875 10.09765625 C-146.9289727 -43.87777235 -56.82933827 -47.19071238 0 0 Z M-149 67 C-161.7746276 82.33613314 -168.27119486 101.05379704 -167 121 C-164.1334232 142.10432526 -155.23891217 159.19477096 -139 173 C-121.91818952 185.45992411 -102.62568265 190.38625156 -81.74755859 187.71142578 C-67.38815994 185.23681278 -54.80678048 178.71439834 -44 169 C-43.38898438 168.48179687 -42.77796875 167.96359375 -42.1484375 167.4296875 C-30.86992999 157.18118068 -21.93001878 139.82527967 -20.82299805 124.55908203 C-20.25178097 100.777335 -24.84599716 81.04054494 -41.62988281 63.39404297 C-55.00228542 49.78812371 -73.9861015 41.99586938 -93 41.75 C-114.65627027 41.94089758 -134.41076642 51.0821936 -149 67 Z " fill="#0033C9" transform="translate(1048,106)"/>
  <path d="M0 0 C26.73 0 53.46 0 81 0 C86.62017804 12.36439169 86.62017804 12.36439169 89.06640625 18.4453125 C89.33727051 19.11625443 89.60813477 19.78719635 89.88720703 20.47846985 C90.47294262 21.92989122 91.05764344 23.38173055 91.64138794 24.83395386 C93.28683624 28.92661331 94.9409693 33.01576624 96.59375 37.10546875 C96.94732071 37.9809285 97.30089142 38.85638824 97.66517639 39.75837708 C101.5251162 49.31084812 105.41954454 58.84918122 109.31613159 68.38674927 C111.43159793 73.56480131 113.54576392 78.74338432 115.66015625 83.921875 C116.09123184 84.97758194 116.52230743 86.03328888 116.96644592 87.12098694 C144.82343166 155.34395328 144.82343166 155.34395328 155 181 C162.85005157 163.71791763 170.32587817 146.2808031 177.75 128.8125 C178.23884674 127.66233398 178.72769348 126.51216797 179.23135376 125.32714844 C180.23724273 122.96030272 181.2431172 120.59345085 182.24897766 118.22659302 C182.75462753 117.03677826 183.2602774 115.8469635 183.78125 114.62109375 C184.54679451 112.81957352 184.54679451 112.81957352 185.32780457 110.98165894 C190.9445224 97.76915269 196.59343773 84.57048883 202.25 71.375 C202.99364807 69.64003769 202.99364807 69.64003769 203.75231934 67.87002563 C213.45902803 45.22824853 223.22219566 22.61117254 233 0 C259.73 0 286.46 0 314 0 C313.27244068 4.3653559 312.73697905 7.06869652 311.06420898 10.93310547 C310.45832191 12.34642654 310.45832191 12.34642654 309.8401947 13.78829956 C309.17486473 15.31234909 309.17486473 15.31234909 308.49609375 16.8671875 C307.79759056 18.48924606 307.79759056 18.48924606 307.0849762 20.14407349 C305.80918306 23.10367241 304.52759402 26.06067978 303.24359131 29.01672363 C301.88064734 32.15870833 300.52554035 35.30406821 299.16992188 38.44921875 C297.19212723 43.03633226 295.21225471 47.62253723 293.22963905 52.20756912 C288.28496811 63.64356921 283.37949572 75.09628871 278.47683716 86.550354 C275.98636709 92.36767792 273.49302722 98.18377162 271 104 C269.9999865 106.33332755 268.99998649 108.66666088 268 111 C190.00000001 292.99999997 190.00000001 292.99999997 188.50030518 296.49926758 C187.49926828 298.8350339 186.49825106 301.17080865 185.49725342 303.5065918 C183.01327826 309.30276932 180.52897294 315.09880487 178.04394531 320.89453125 C173.35237915 331.837458 168.66429838 342.78184678 163.98718262 353.73095703 C162.04574591 358.2757801 160.10272588 362.81992575 158.15935516 367.36392212 C156.83308569 370.46535305 155.50802039 373.56728595 154.18457031 376.66992188 C152.72420251 380.09339168 151.26085042 383.51557169 149.796875 386.9375 C149.36880554 387.94321045 148.94073608 388.9489209 148.49969482 389.98510742 C147.89414764 391.3982019 147.89414764 391.3982019 147.27636719 392.83984375 C146.93128113 393.64800537 146.58619507 394.45616699 146.23065186 395.28881836 C144.58834323 398.90689846 142.77694576 402.44610847 141 406 C114.27 406 87.54 406 60 406 C60.75183282 402.24083591 61.45957784 399.60006547 62.93579102 396.18041992 C63.33961502 395.23836197 63.74343903 394.29630402 64.15950012 393.32569885 C64.60315414 392.30427292 65.04680817 391.28284698 65.50390625 390.23046875 C65.97048141 389.14559677 66.43705658 388.06072479 66.91777039 386.94297791 C68.19528205 383.97472409 69.47700263 381.00833041 70.76045227 378.04264069 C72.1060559 374.93025231 73.44591993 371.81539613 74.78613281 368.70068359 C76.74863535 364.14096859 78.71269862 359.58193228 80.67886543 355.02379608 C85.76093561 343.24194131 90.82217145 331.45117163 95.87756062 319.6578474 C97.69324097 315.42236363 99.5114134 311.18795556 101.33032227 306.95385742 C102.28798657 304.72186965 103.24559064 302.48985603 104.203125 300.2578125 C104.63131027 299.26216782 105.05949554 298.26652313 105.50065613 297.2407074 C106.29738564 295.38174478 107.08639932 293.51945024 107.8664856 291.65344238 C108.62913743 289.8681517 109.43071038 288.09904399 110.26803589 286.34753418 C112.21540763 282.08897989 113.1473063 279.85400906 112.33447266 275.14160156 C111.81301143 273.87612849 111.25376488 272.62577479 110.6640625 271.390625 C110.3636908 270.68745651 110.06331909 269.98428802 109.75384521 269.2598114 C109.09271375 267.72385771 108.41550958 266.19474541 107.7243042 264.67208862 C106.59034949 262.1736548 105.4990545 259.6600204 104.41650391 257.13891602 C103.23212258 254.38360211 102.04449865 251.63003363 100.84420776 248.88160706 C96.28667382 238.44509308 92.02093913 227.89349449 87.75119019 217.33676147 C85.42273437 211.58535428 83.0795475 205.83995124 80.73828125 200.09375 C79.78461273 197.75132457 78.83099965 195.40887657 77.87744141 193.06640625 C74.99688488 185.99146675 72.1139194 178.91751038 69.23046875 171.84375 C61.26345576 152.29780725 53.29664931 132.7518798 45.375 113.1875 C40.09287506 100.14275692 34.78760573 87.10756068 29.46917725 74.07757568 C28.61946624 71.99580597 27.76989595 69.91397881 26.92047119 67.83209229 C22.63567256 57.33066237 18.34528255 46.83161489 14.03022766 36.34257507 C12.33829488 32.22973691 10.64861106 28.11597617 8.95889282 24.00222778 C7.76968243 21.11036278 6.57665482 18.22009185 5.38354492 15.32983398 C4.6669627 13.58585372 3.95056209 11.84179882 3.234375 10.09765625 C2.73908043 8.90295212 2.73908043 8.90295212 2.23377991 7.68411255 C0 2.22755384 0 2.22755384 0 0 Z " fill="#00CF6A" transform="translate(1801,73)"/>
  <path d="M0 0 C24.75 0 49.5 0 75 0 C75 97.02 75 194.04 75 294 C87.21 294 99.42 294 112 294 C112 318.75 112 343.5 112 369 C64.93055159 369 64.93055159 369 51.75 362.75 C51.08653564 362.44553955 50.42307129 362.1410791 49.73950195 361.82739258 C28.72501152 351.94465497 13.65311675 335.47406608 5 314 C0.80979074 302.1039216 -0.15334149 290.42762108 -0.12025452 277.90818787 C-0.12110894 276.71626786 -0.12196337 275.52434785 -0.12284368 274.29630905 C-0.12419989 271.01017192 -0.12109795 267.7240748 -0.11606562 264.43794239 C-0.11172926 260.88592019 -0.1132098 257.33389971 -0.1139679 253.78187561 C-0.11449112 247.63511658 -0.11136543 241.48836821 -0.10573006 235.34161186 C-0.09758768 226.45453918 -0.09499703 217.56747162 -0.09374207 208.68039561 C-0.09155585 194.2601534 -0.08490742 179.83991687 -0.07543945 165.41967773 C-0.06625421 151.41544625 -0.05917882 137.41121631 -0.05493164 123.40698242 C-0.05466892 122.54311822 -0.05440619 121.67925401 -0.05413551 120.7892121 C-0.05283043 116.45526716 -0.05156673 112.1213222 -0.05032361 107.78737724 C-0.03996439 71.85824645 -0.02153329 35.92912617 0 0 Z " fill="#0033C9" transform="translate(681,0)"/>
  <defs>
    <clipPath id="clip0">
      <rect width="115" height="33" fill="white" />
    </clipPath>
  </defs>
</svg>

